<?xml version="1.0" standalone="no"?>
<!DOCTYPE svg PUBLIC "-//W3C//DTD SVG 20010904//EN"
 "http://www.w3.org/TR/2001/REC-SVG-20010904/DTD/svg10.dtd">
<svg version="1.0" xmlns="http://www.w3.org/2000/svg"
 width="572.000000pt" height="572.000000pt" viewBox="0 0 572.000000 572.000000"
 preserveAspectRatio="xMidYMid meet">
<metadata>
Created by potrace 1.14, written by Peter Selinger 2001-2017
</metadata>
<g transform="translate(0.000000,572.000000) scale(0.100000,-0.100000)"
fill="#000000" stroke="none">
<path d="M2371 5703 c-30 -15 -51 -50 -51 -84 0 -42 38 -88 73 -89 20 0 31
-24 42 -95 5 -27 9 -52 10 -55 2 -8 24 -113 29 -140 9 -47 17 -86 47 -235 65
-328 160 -812 164 -838 3 -15 25 -123 48 -240 24 -117 42 -218 39 -225 -2 -7
-9 -12 -15 -12 -7 0 -33 -11 -59 -25 -35 -18 -48 -21 -55 -12 -5 7 -51 111
-102 232 -51 121 -101 238 -111 260 -9 22 -113 264 -230 538 -189 443 -211
501 -201 523 33 73 -11 144 -89 144 -94 0 -123 -132 -39 -175 17 -9 42 -15 54
-12 21 3 27 -6 66 -97 23 -56 55 -129 71 -164 15 -34 28 -65 28 -68 0 -3 12
-31 26 -62 14 -31 35 -79 46 -106 10 -27 27 -68 37 -90 11 -23 38 -86 61 -141
23 -55 50 -118 60 -140 10 -22 37 -85 60 -140 23 -55 48 -113 55 -130 8 -16
50 -117 95 -223 l82 -192 -27 -28 c-160 -160 -166 -424 -13 -598 17 -20 56
-52 87 -73 l55 -38 0 -1135 1 -1135 -85 0 c-47 -1 -93 -1 -102 -2 -17 -1 -18
-22 -18 -295 0 -226 3 -295 13 -298 6 -2 181 -3 387 -3 l375 1 3 294 c1 175
-1 296 -7 299 -5 4 -50 6 -100 5 -58 -1 -94 3 -99 10 -3 6 -7 517 -7 1135 l0
1124 55 37 c69 47 100 80 142 150 l33 56 357 -1 c196 0 359 -2 362 -5 3 -3 -3
-39 -14 -80 -103 -407 -374 -699 -785 -848 l-50 -18 2 -164 c1 -91 2 -205 2
-254 l1 -89 38 6 c159 26 455 156 622 275 121 86 306 270 392 392 139 196 249
459 289 690 19 112 30 307 21 382 l-4 37 -616 -2 -616 -2 -31 53 c-37 64 -102
132 -150 158 -19 10 -35 21 -35 25 0 4 50 109 111 235 61 126 135 279 164 339
29 61 100 207 157 325 57 118 138 285 179 370 175 364 192 395 219 395 100 1
128 139 36 177 -87 36 -161 -41 -121 -126 l17 -35 -62 -128 c-35 -70 -92 -189
-127 -263 -36 -74 -99 -205 -140 -290 -42 -85 -101 -209 -133 -275 -32 -66
-104 -214 -160 -330 -56 -115 -120 -248 -142 -293 -37 -80 -40 -84 -66 -77
-42 11 -83 17 -127 19 -36 1 -40 3 -38 26 5 90 16 260 18 285 3 34 17 231 20
285 4 66 16 235 20 280 2 25 7 90 11 145 4 55 8 114 9 130 1 17 6 83 10 148 9
151 6 137 43 174 62 61 34 151 -51 160 -32 4 -48 0 -69 -16 -52 -42 -44 -127
14 -157 l30 -16 -6 -91 c-4 -51 -9 -128 -12 -172 -2 -44 -6 -98 -9 -120 -2
-22 -7 -89 -10 -150 -3 -60 -8 -126 -10 -145 -2 -19 -7 -80 -10 -135 -3 -55
-8 -118 -10 -140 -2 -22 -7 -92 -11 -155 -4 -63 -8 -126 -9 -140 -2 -14 -3
-52 -4 -85 -2 -84 -13 -57 -45 110 -15 77 -33 169 -41 205 -8 36 -17 81 -20
100 -3 19 -8 42 -10 50 -2 8 -7 29 -9 45 -3 17 -28 143 -55 280 -28 138 -53
266 -56 285 -3 19 -8 42 -10 50 -2 8 -6 26 -9 40 -2 14 -14 75 -26 135 -12 61
-23 121 -26 135 -2 14 -7 36 -10 50 -3 14 -8 39 -11 55 -3 17 -11 60 -19 97
-13 67 -13 68 11 94 72 78 -18 193 -114 147z"/>
<path d="M2697 4983 c-2 -1 -19 -3 -39 -5 -34 -2 -35 -4 -32 -32 3 -17 7 -42
10 -56 3 -14 14 -74 25 -135 10 -60 21 -123 24 -140 3 -16 7 -46 11 -65 11
-72 11 -72 67 -65 29 4 53 8 54 9 1 0 4 46 8 101 8 119 11 168 20 298 l7 98
-77 -3 c-42 -1 -77 -4 -78 -5z"/>
<path d="M3004 4978 c-4 -5 -8 -40 -10 -76 -2 -37 -6 -94 -9 -127 -12 -151
-17 -296 -9 -293 29 8 265 -44 290 -64 16 -12 21 -4 137 230 l106 213 -42 18
c-93 40 -232 73 -435 105 -12 2 -25 -1 -28 -6z"/>
<path d="M2370 4916 c-138 -43 -183 -63 -177 -78 145 -369 181 -449 196 -445
9 3 54 18 99 34 l84 28 -5 35 c-13 86 -78 427 -85 442 -6 15 -17 13 -112 -16z"/>
<path d="M1972 4736 c-108 -67 -187 -130 -293 -236 -259 -256 -413 -557 -481
-935 -20 -116 -16 -437 7 -545 3 -14 8 -40 11 -59 3 -19 10 -45 15 -58 5 -13
7 -23 4 -23 -9 0 68 -208 110 -298 44 -92 142 -249 204 -327 144 -179 355
-348 567 -454 88 -44 272 -112 336 -125 12 -2 53 -11 91 -19 l67 -15 1 27 c1
14 2 46 4 71 1 25 5 126 9 225 l7 180 -108 33 c-261 81 -463 225 -625 448 -85
117 -164 300 -195 454 -21 104 -24 306 -7 411 50 309 221 588 472 772 46 33
81 65 78 71 -2 6 -20 47 -39 91 -19 44 -49 110 -66 148 -17 37 -31 70 -31 72
0 7 -59 135 -63 135 -2 0 -35 -20 -75 -44z"/>
</g>
</svg>
